<svg width="180" height="30" viewBox="0 0 180 30" fill="none" xmlns="http://www.w3.org/2000/svg">
<path d="M158.781 20.2619C158.781 22.1167 160.26 23.8071 162.82 23.8071C164.369 23.8071 165.496 23.1497 166.106 22.1636C166.106 22.9619 166.2 23.3845 166.224 23.4784H169.44C169.417 23.361 169.3 22.5862 169.3 21.6706V15.9653C169.3 13.5706 167.914 11.4575 164.134 11.4575C160.706 11.4575 159.157 13.6645 159.016 15.3314L162.115 15.9653C162.186 15.0967 162.866 14.2514 164.111 14.2514C165.238 14.2514 165.825 14.8384 165.825 15.5193C165.825 15.9184 165.613 16.2236 164.98 16.3175L162.233 16.7401C160.307 17.0219 158.781 18.1958 158.781 20.2619ZM163.688 21.2245C162.702 21.2245 162.303 20.6375 162.303 20.0271C162.303 19.2053 162.866 18.8532 163.618 18.7358L165.825 18.3836V18.9001C165.825 20.708 164.745 21.2245 163.688 21.2245Z" fill="white"/>
<path d="M176.461 8.40527H173.268C173.268 8.40527 171.522 11.7392 170.873 11.8096V14.9322H172.939V19.9331C172.939 22.2574 174.418 23.6896 176.837 23.6896C177.963 23.6896 178.55 23.4314 178.691 23.3609V20.4027C178.48 20.4496 178.128 20.5201 177.752 20.5201C176.977 20.5201 176.461 20.2618 176.461 19.2992V14.9322H178.738V11.8096H176.461V8.40527Z" fill="white"/>
<path d="M149.091 16.6226C149.162 15.5426 149.889 14.7443 151.016 14.7443C152.308 14.7443 152.918 15.613 152.918 16.7635V23.4782H156.487V16.153C156.487 13.5939 155.125 11.5043 152.073 11.5043C151.04 11.5043 149.819 11.833 149.091 12.5608V6.47998H145.522V23.4782H149.091V16.6226Z" fill="white"/>
<path d="M135.528 23.8304C140.693 23.8304 142.9 20.3087 143.44 18.0078L139.895 16.9982C139.566 18.1956 138.416 20.1208 135.528 20.1208C133.039 20.1208 130.739 18.313 130.739 15.1904C130.739 11.6922 133.251 10.0956 135.481 10.0956C138.416 10.0956 139.473 12.0443 139.731 13.1948L143.229 12.0913C142.689 9.6965 140.482 6.47998 135.481 6.47998C130.833 6.47998 126.888 10.0017 126.888 15.1904C126.888 20.3791 130.739 23.8304 135.528 23.8304Z" fill="white"/>
<path d="M120.711 21.2712C120.711 22.5626 121.791 23.6895 123.106 23.6895C124.421 23.6895 125.524 22.5626 125.524 21.2712C125.524 19.9565 124.421 18.8765 123.106 18.8765C121.791 18.8765 120.711 19.9565 120.711 21.2712Z" fill="white"/>
<path d="M103.258 23.4784V16.7636C103.258 15.7071 103.939 14.7445 105.183 14.7445C106.475 14.7445 107.062 15.6132 107.062 16.7167V23.4784H110.583V16.7401C110.583 15.7071 111.264 14.7445 112.532 14.7445C113.8 14.7445 114.387 15.6132 114.387 16.7167V23.4784H117.838V15.9184C117.838 12.7488 115.725 11.4575 113.518 11.4575C111.945 11.4575 110.818 11.974 109.902 13.2888C109.316 12.1384 108.118 11.4575 106.451 11.4575C105.183 11.4575 103.681 12.1149 103.094 13.148V11.8097H99.6895V23.4784H103.258Z" fill="white"/>
<path d="M82.577 23.4783V11.8096H79.0083V23.4783H82.577ZM78.7031 8.24093C78.7031 9.39137 79.6423 10.3305 80.7692 10.3305C81.9431 10.3305 82.8823 9.39137 82.8823 8.24093C82.8823 7.0905 81.9431 6.15137 80.7692 6.15137C79.6423 6.15137 78.7031 7.0905 78.7031 8.24093Z" fill="white"/>
<path d="M93.2399 23.4783H96.6677C96.6442 23.2904 96.5503 22.4452 96.5503 21.3887V11.8096H92.9816V18.4539C92.9816 19.6278 92.2303 20.4496 91.0329 20.4496C89.7651 20.4496 89.1546 19.5574 89.1546 18.4304V11.8096H85.5859V19.1817C85.5859 21.6704 87.1825 23.7365 90.0233 23.7365C91.1972 23.7365 92.5355 23.3139 93.1459 22.3044C93.1459 22.6096 93.1929 23.267 93.2399 23.4783Z" fill="white"/>
<path d="M61.4149 23.4784V16.7636C61.4149 15.7071 62.0958 14.7445 63.3401 14.7445C64.6314 14.7445 65.2184 15.6132 65.2184 16.7167V23.4784H68.7401V16.7401C68.7401 15.7071 69.421 14.7445 70.6888 14.7445C71.9566 14.7445 72.5436 15.6132 72.5436 16.7167V23.4784H75.9949V15.9184C75.9949 12.7488 73.8818 11.4575 71.6749 11.4575C70.1018 11.4575 68.9749 11.974 68.0592 13.2888C67.4723 12.1384 66.2749 11.4575 64.6079 11.4575C63.3401 11.4575 61.8375 12.1149 61.2505 13.148V11.8097H57.8462V23.4784H61.4149Z" fill="white"/>
<path d="M25.1061 14.2981V10.0486H27.2661C28.6748 10.0486 29.6374 10.8468 29.6374 12.1851C29.6374 13.4764 28.6748 14.2981 27.2661 14.2981H25.1061ZM27.6417 17.4912C31.0226 17.4912 33.347 15.3077 33.347 12.1616C33.347 9.06247 31.0226 6.83203 27.6417 6.83203H21.373V23.4781H25.0826V17.4912H27.6417Z" fill="white"/>
<path d="M47.1299 16.9508C46.952 16.0976 47.361 14.8268 48.8024 14.4023C50.424 13.9248 51.3146 14.7883 51.6117 15.6309L47.1299 16.9508ZM52.7151 18.4632C52.6585 19.4344 52.1328 20.2256 50.8941 20.5904C49.5653 20.9818 48.1513 20.4192 47.7123 19.1779L55.5049 16.8829C55.5075 16.8087 55.4 16.2774 55.2607 15.8045C54.1995 12.201 51.4298 10.6915 47.9614 11.713C45.0561 12.5686 43.0525 15.6551 44.1138 19.2586C45.2215 23.0198 48.6192 24.4177 51.7046 23.509C54.5424 22.6733 55.8441 20.5277 55.8142 18.4317L52.7151 18.4632Z" fill="white"/>
<path d="M42.7038 11.8098C42.469 11.7393 42.1168 11.6924 41.7647 11.6924C40.8255 11.6924 39.3464 12.068 38.736 13.3828V11.8098H35.2847V23.4785H38.8534V18.3837C38.8534 16.0593 40.1447 15.2141 41.5768 15.2141C41.929 15.2141 42.3047 15.2376 42.7038 15.3315V11.8098Z" fill="white"/>
<path d="M0 14.4783C0 9.79585 3.79585 6 8.47826 6C13.1607 6 16.9565 9.79585 16.9565 14.4783V24.087H9.04348C4.04891 24.087 0 20.0381 0 15.0435V14.4783Z" fill="url(#paint0_linear)"/>
<path d="M10.9899 20.8002C11.3627 20.8002 11.6649 20.498 11.6649 20.1252V19.5207C13.0266 19.2741 13.8014 18.2646 13.8014 17.1846C13.8014 16.128 13.1792 15.2124 11.6062 14.8602L10.5849 14.6372C10.127 14.5315 9.89226 14.285 9.89226 13.968C9.89226 13.5924 10.221 13.205 10.8783 13.205C11.2258 13.205 11.4711 13.2907 11.6458 13.417C12.039 13.7015 12.474 14.0733 12.943 13.9485C13.3721 13.8343 13.6493 13.3943 13.4341 13.0059C13.1231 12.4443 12.5652 11.934 11.6649 11.7376V11.1096C11.6649 10.7368 11.3627 10.4346 10.9899 10.4346C10.6171 10.4346 10.3149 10.7368 10.3149 11.1096V11.7024C9.08226 11.9137 8.09617 12.8176 8.09617 14.1324C8.09617 15.2476 8.90617 16.0459 10.221 16.3628L11.2657 16.6094C11.7353 16.715 11.9936 16.938 11.9936 17.2785C11.9936 17.7363 11.571 18.018 10.984 18.018C10.4445 18.018 10.0592 17.8437 9.80841 17.5775C9.4666 17.2146 9.01322 16.824 8.52684 16.9333C8.12541 17.0234 7.84182 17.4039 7.99392 17.7862C8.30493 18.5679 9.04308 19.3367 10.3149 19.5441V20.1252C10.3149 20.498 10.6171 20.8002 10.9899 20.8002Z" fill="white"/>
<rect x="2.60889" y="11.7393" width="3.91304" height="1.30435" rx="0.652174" fill="white"/>
<rect x="3.91309" y="14.3477" width="2.6087" height="1.30435" rx="0.652174" fill="white"/>
<rect x="5.21729" y="16.9565" width="1.30435" height="1.30435" rx="0.652174" fill="white"/>
<defs>
<linearGradient id="paint0_linear" x1="1.21118" y1="6" x2="17.2961" y2="7.7672" gradientUnits="userSpaceOnUse">
<stop stop-color="#7CCF6F"/>
<stop offset="1" stop-color="#4FC77F"/>
</linearGradient>
</defs>
</svg>
